<?xml version="1.0" encoding="UTF-8"?><svg id="Layer_1" xmlns="http://www.w3.org/2000/svg" width="363.35" height="54.98" viewBox="0 0 363.35 54.98"><defs><style>.cls-1{fill:none;stroke:#593921;stroke-linecap:round;}</style></defs><path class="cls-1" d="M3.46,18.03c4-4.29,10.41-9.15,19.04-9.02,6.67.1,13.75.42,18.44,1.2,8.31,1.38,19.5,5.25,26.8,8.97,7.65,3.91,16.29,6.68,23.59,10.56,7.4,3.93,12.41,4.96,23.08,6.74,10.8.97,12.94,1.32,22.87.91,7.73-.33,15.54-1.13,23.81-4.71,7.61-3.3,16.94-9.58,20.95-13.88"/><path class="cls-1" d="M187.35,12.9c-.25-.04-.53-.08-.76,0-.18.06-.38.08-.57.14-.17.05-.31.19-.48.23-.26.05-.59.3-.78.47-.09.08-.18.19-.28.26-.11.09-.27.18-.36.29-.09.11-.26.22-.38.32-.17.15-.29.4-.43.59-.12.17-.28.39-.32.6-.02.14-.02.32-.08.44-.21.44-.33,1-.41,1.49-.1.59.11,1.42.61,1.81.25.19.39.5.62.71.23.2.47.34.72.5.29.19.73.23,1.06.28.34.06.68.11,1.02.17.17.03.49.15.66.09.17-.06.35-.13.51-.19.18-.06.41-.06.57-.16.15-.09.34-.22.5-.28.46-.16.88-.33,1.22-.68.18-.19.34-.23.39-.52.05-.28.21-.47.25-.74.02-.11.04-.22.06-.33,0-.05.13-.1.17-.17.11-.17.11-.46.14-.66.1-.62-.01-1.42-.39-1.94-.12-.17-.21-.38-.27-.58-.07-.22-.26-.39-.39-.57-.55-.74-1.22-1.39-2.18-1.55"/><path class="cls-1" d="M359.35,20.7c-3.49,4.72-9.3,10.28-17.89,11.13-6.64.66-13.71,1.14-18.46.9-8.41-.43-19.97-3-27.65-5.87-8.04-3.01-16.94-4.79-24.64-7.81-7.8-3.06-12.89-3.52-23.69-4.07-10.84.26-13,.15-22.83,1.7-7.64,1.2-15.31,2.89-23.12,7.39-7.19,4.14-15.74,11.44-19.24,16.16"/><path class="cls-1" d="M177.42,46.67c.25.01.54.02.76-.09.17-.08.37-.13.55-.2.16-.07.28-.23.45-.28.25-.08.55-.37.73-.56.08-.09.16-.2.25-.29.1-.1.25-.21.33-.33.08-.12.24-.25.34-.36.15-.17.25-.44.36-.63.11-.19.24-.42.25-.64,0-.14-.02-.32.03-.45.17-.46.21-1.03.24-1.53.03-.59-.27-1.39-.82-1.73-.27-.16-.44-.45-.7-.63-.25-.18-.51-.28-.78-.42-.31-.16-.75-.14-1.09-.16-.34-.02-.69-.03-1.03-.05-.18,0-.51-.09-.67-.01-.17.08-.33.17-.49.25-.17.08-.4.11-.55.22-.14.11-.31.26-.47.33-.44.21-.84.43-1.14.81-.16.21-.31.27-.33.56-.02.28-.15.49-.17.76,0,.11-.01.22-.02.33,0,.05-.11.12-.15.18-.09.18-.06.47-.07.68-.03.63.17,1.41.61,1.89.14.15.25.35.33.54.09.21.3.36.46.53.63.68,1.37,1.24,2.34,1.29"/></svg>