<?xml version="1.0" encoding="UTF-8"?><svg id="Layer_1" xmlns="http://www.w3.org/2000/svg" width="227.23" height="64.54" viewBox="0 0 227.23 64.54"><defs><style>.cls-1,.cls-2{fill:none;}.cls-1,.cls-3{stroke-width:0px;}.cls-2{stroke:#593921;}.cls-3{fill:#593921;}</style></defs><path class="cls-3" d="M16.19,5.08l.06,2.55v15.48h-1.44V1.48h.66l14.13,16.29c.96,1.14,1.7,2.05,2.22,2.73-.08-.96-.12-2.06-.12-3.3V1.66h1.44v21.63h-.66L18.08,6.7c-1-1.14-1.64-1.9-1.92-2.28l.03.66Z"/><path class="cls-3" d="M41.06,23.11V1.66h1.44v21.45h-1.44Z"/><path class="cls-3" d="M51.8,5.08l.06,2.55v15.48h-1.44V1.48h.66l14.13,16.29c.96,1.14,1.7,2.05,2.22,2.73-.08-.96-.12-2.06-.12-3.3V1.66h1.44v21.63h-.66l-14.4-16.59c-1-1.14-1.64-1.9-1.92-2.28l.03.66Z"/><path class="cls-3" d="M77.81,15.67l-3.09,7.44h-1.53L82.22,1.51h.84l9.06,21.6h-1.62l-3.09-7.44h-9.6ZM82.55,3.91s-.06.14-.12.36c-.28.86-.55,1.59-.81,2.19l-3.3,7.98h8.58l-3.3-7.95c-.7-1.52-1.05-2.38-1.05-2.58Z"/><path class="cls-3" d="M107.36,23.11V1.75c1.9-.14,3.49-.21,4.77-.21,2.04,0,3.72.53,5.04,1.58s1.98,2.54,1.98,4.46c0,1.3-.38,2.51-1.14,3.63-.76,1.12-1.61,2.01-2.55,2.67.74,1.02,1.65,2.24,2.75,3.65,1.09,1.41,1.79,2.29,2.11,2.65,1.22,1.3,2.6,2.04,4.14,2.22l-.03.96c-1.22-.02-2.21-.21-2.97-.56-.76-.35-1.48-.88-2.18-1.6-.69-.72-2.4-2.96-5.14-6.72-1.96,0-3.74-.06-5.34-.18v8.82h-1.44ZM113.27,13.27c.88,0,1.82-.58,2.82-1.74,1-1.16,1.5-2.5,1.5-4.04s-.52-2.69-1.54-3.48c-1.03-.79-2.4-1.19-4.1-1.19-.9,0-1.95.04-3.15.12v10.17c1.6.1,3.09.15,4.47.15Z"/><path class="cls-3" d="M125.84,12.37c0-3.12.99-5.75,2.98-7.88,1.99-2.13,4.5-3.19,7.54-3.19,2.14,0,4.06.57,5.76,1.71l1.83-2.67.96.69-1.83,2.67c1.22,1.02,2.16,2.28,2.83,3.78.67,1.5,1,3.13,1,4.89,0,3.12-1,5.75-3,7.89-2,2.14-4.52,3.21-7.56,3.21-2.14,0-4.06-.57-5.76-1.71l-1.8,2.61-.96-.66,1.83-2.64c-1.22-1.04-2.17-2.31-2.83-3.81-.67-1.5-1-3.13-1-4.89ZM129.89,5.43c-1.66,1.87-2.49,4.27-2.49,7.2s1.02,5.36,3.06,7.28l10.89-15.78c-1.44-1-3.1-1.5-4.98-1.5-2.66,0-4.82.94-6.48,2.81ZM145.37,12.37c0-3.12-1.03-5.63-3.09-7.53l-10.89,15.81c1.44,1,3.1,1.5,4.98,1.5,2.66,0,4.82-.94,6.5-2.82,1.67-1.88,2.5-4.2,2.5-6.96Z"/><path class="cls-3" d="M154.97,5.08l.06,2.55v15.48h-1.44V1.48h.66l14.13,16.29c.96,1.14,1.7,2.05,2.22,2.73-.08-.96-.12-2.06-.12-3.3V1.66h1.44v21.63h-.66l-14.4-16.59c-1-1.14-1.64-1.9-1.92-2.28l.03.66Z"/><path class="cls-3" d="M186.02,1.45c3.3,0,6.06,1.03,8.28,3.08,2.22,2.05,3.33,4.83,3.33,8.35,0,1.78-.29,3.36-.85,4.73s-1.35,2.46-2.35,3.29c-2.06,1.66-4.63,2.49-7.71,2.49-2.02,0-4.31-.11-6.87-.33V1.66c2.04-.14,4.1-.21,6.18-.21ZM186.71,22.06c2.82,0,5.08-.77,6.79-2.29,1.71-1.53,2.56-3.83,2.56-6.92s-.97-5.53-2.9-7.35c-1.93-1.82-4.32-2.73-7.15-2.73-1.82,0-3.4.05-4.74.15v18.9c1.3.16,3.11.24,5.43.24Z"/><path class="cls-3" d="M204.29,23.11V1.66h9.96v1.26h-8.52v7.89h7.71v1.23h-7.71v9.81h8.85v1.26h-10.29Z"/><path class="cls-3" d="M76.2,57.83v-12.08h.94v11.47c0,1.13-.18,2.13-.52,3-.35.87-.76,1.54-1.22,2.02-.46.48-1.06.97-1.79,1.49l-.44-.63c2.02-1.47,3.02-3.23,3.02-5.27Z"/><path class="cls-3" d="M82.19,59.38v-13.63h6.36v.84h-5.4v4.96h4.87v.82h-4.87v6.13h5.61v.88h-6.57Z"/><path class="cls-3" d="M96.09,56.06l3.93-10.04h.61l3.42,10.1.5,1.7c.04-.27.22-.83.52-1.68l3.49-10.39h1.01l-4.75,13.71h-.57c-2.34-6.71-3.55-10.19-3.63-10.46-.13-.38-.25-.75-.38-1.11-.07.24-.26.74-.57,1.49l-3.97,10.08h-.57l-4.79-13.71h1.07l3.46,10.23c.2.56.38,1.18.55,1.87.07-.28.29-.88.65-1.79Z"/><path class="cls-3" d="M112.34,59.38v-13.63h6.36v.84h-5.4v4.96h4.87v.82h-4.87v6.13h5.61v.88h-6.57Z"/><path class="cls-3" d="M122.78,59.38v-13.63h.97v12.75h6.26v.88h-7.22Z"/><path class="cls-3" d="M132.86,59.38v-13.57c1.2-.1,2.23-.15,3.07-.15,1.29,0,2.35.33,3.19,1,.84.67,1.26,1.61,1.26,2.85,0,.83-.24,1.59-.71,2.29-.48.7-1.02,1.27-1.62,1.7,1.67,2.21,2.69,3.54,3.09,3.97.8.83,1.67,1.29,2.6,1.41l-.02.65c-.78-.01-1.42-.13-1.91-.35s-.98-.58-1.46-1.1-1.54-1.91-3.18-4.18c-1.13,0-2.25-.03-3.34-.1v5.59h-.97ZM136.64,53.1c.55,0,1.13-.36,1.76-1.09.63-.73.94-1.58.94-2.54s-.33-1.7-.99-2.21c-.66-.5-1.51-.76-2.56-.76-.56,0-1.22.03-1.97.08v6.41c1.01.07,1.95.1,2.81.1Z"/><path class="cls-3" d="M148.65,59.38h-.94v-4.87l-5.15-8.76h1.16l3.97,6.76c.31.62.48.95.52.99.08-.18.26-.5.52-.97l3.97-6.78h1.09l-5.15,8.8v4.83Z"/><path class="cls-1" d="M113.2,35.17c-1.59-.05-3.24-.1-4.85-.09-.06,0-.12,0-.18,0l5.45,5.45,5.3-5.3c-.27.02-.55.04-.82.04-1.63.01-3.29-.04-4.89-.09Z"/><path class="cls-1" d="M107.01,31.34c.23,0,.46.01.68,0,1.64,0,3.29.04,4.89.09,1.59.05,3.25.11,4.85.09.52,0,1.05-.05,1.57-.1l-6.04-6.04-5.95,5.95Z"/><path class="cls-2" d="M15.15,33.03c4.72,1.22,9.5,1.48,14.41.85,2.8-.36,5.64-1.16,8.41-.62,1.46.29,2.84.93,4.3,1.22,4.11.81,8.21-1.3,12.38-1.62,3.5-.27,6.96.73,10.46,1.05,7.61.7,15.33-1.81,22.86-.51,2.66.46,5.26,1.39,7.95,1.41,3.58.03,7.21-1.54,10.65-.53"/><path class="cls-2" d="M120.34,34.18c6.35,1.84,13.08-1.35,19.6-.46,2.36.32,4.66,1.18,7.04,1.24,1.78.04,3.55-.36,5.31-.6,2.71-.37,5.45-.34,8.18-.32,3.59.03,7.18.06,10.74.54,4.06.55,7.79.9,11.86.42,5.49-.64,8.23-2.67,13.69-1.87,2.73.4,5.98-.2,8.64.32,2.64.52,7.04.12,10.09-1.17"/><polygon class="cls-2" points="113.61 41.44 110.57 37.08 106.47 34.3 110.67 31.55 113.61 27.16 116.33 31.22 120.76 34.3 116.38 37.02 113.61 41.44"/></svg>