<?xml version="1.0" encoding="UTF-8"?><svg id="Layer_1" xmlns="http://www.w3.org/2000/svg" width="144.21" height="53.69" viewBox="0 0 144.21 53.69"><defs><style>.cls-1{fill:#593921;stroke-width:0px;}.cls-2{fill:none;stroke:#593921;stroke-linecap:round;}</style></defs><path class="cls-1" d="M6.47,5.2l.04,1.72v10.46h-.97V2.77h.45l9.55,11c.65.77,1.15,1.38,1.5,1.84-.05-.65-.08-1.39-.08-2.23V2.89h.97v14.61h-.45L7.74,6.29c-.68-.77-1.11-1.28-1.3-1.54l.02.45Z"/><path class="cls-1" d="M23.27,17.38V2.89h.97v14.49h-.97Z"/><path class="cls-1" d="M30.52,5.2l.04,1.72v10.46h-.97V2.77h.45l9.55,11c.65.77,1.15,1.38,1.5,1.84-.05-.65-.08-1.39-.08-2.23V2.89h.97v14.61h-.45l-9.73-11.21c-.68-.77-1.11-1.28-1.3-1.54l.02.45Z"/><path class="cls-1" d="M48.1,12.35l-2.09,5.03h-1.03l6.1-14.59h.57l6.12,14.59h-1.09l-2.09-5.03h-6.49ZM51.3,4.41s-.04.09-.08.24c-.19.58-.37,1.07-.55,1.48l-2.23,5.39h5.8l-2.23-5.37c-.47-1.03-.71-1.61-.71-1.74Z"/><path class="cls-1" d="M68.06,17.38V2.95c1.28-.09,2.36-.14,3.22-.14,1.38,0,2.51.35,3.4,1.06.89.71,1.34,1.71,1.34,3.01,0,.88-.26,1.7-.77,2.45-.51.76-1.09,1.36-1.72,1.8.5.69,1.12,1.51,1.85,2.46.74.95,1.21,1.55,1.43,1.79.82.88,1.76,1.38,2.8,1.5l-.02.65c-.82-.01-1.49-.14-2.01-.38s-1-.6-1.47-1.08-1.62-2-3.48-4.54c-1.32,0-2.53-.04-3.61-.12v5.96h-.97ZM72.05,10.73c.59,0,1.23-.39,1.91-1.18.68-.78,1.01-1.69,1.01-2.73s-.35-1.82-1.04-2.35c-.7-.53-1.62-.8-2.77-.8-.61,0-1.32.03-2.13.08v6.87c1.08.07,2.09.1,3.02.1Z"/><path class="cls-1" d="M80.54,10.12c0-2.11.67-3.88,2.02-5.32,1.34-1.44,3.04-2.16,5.1-2.16,1.45,0,2.74.38,3.89,1.16l1.24-1.8.65.47-1.24,1.8c.82.69,1.46,1.54,1.92,2.55.45,1.01.68,2.12.68,3.3,0,2.11-.68,3.88-2.03,5.33-1.35,1.45-3.05,2.17-5.11,2.17-1.45,0-2.74-.38-3.89-1.16l-1.22,1.76-.65-.45,1.24-1.78c-.82-.7-1.46-1.56-1.92-2.57s-.68-2.11-.68-3.3ZM83.28,5.43c-1.12,1.26-1.68,2.88-1.68,4.86s.69,3.62,2.07,4.91l7.36-10.66c-.97-.68-2.09-1.01-3.36-1.01-1.8,0-3.26.63-4.38,1.9ZM93.74,10.12c0-2.11-.7-3.8-2.09-5.09l-7.36,10.68c.97.68,2.09,1.01,3.36,1.01,1.8,0,3.26-.63,4.39-1.91,1.13-1.27,1.69-2.84,1.69-4.7Z"/><path class="cls-1" d="M100.22,5.2l.04,1.72v10.46h-.97V2.77h.45l9.55,11c.65.77,1.15,1.38,1.5,1.84-.05-.65-.08-1.39-.08-2.23V2.89h.97v14.61h-.45l-9.73-11.21c-.68-.77-1.11-1.28-1.3-1.54l.02.45Z"/><path class="cls-1" d="M121.2,2.75c2.23,0,4.09.69,5.59,2.08,1.5,1.39,2.25,3.27,2.25,5.64,0,1.2-.19,2.27-.58,3.19-.39.93-.92,1.67-1.59,2.22-1.39,1.12-3.13,1.68-5.21,1.68-1.36,0-2.91-.07-4.64-.22V2.89c1.38-.09,2.77-.14,4.17-.14ZM121.67,16.67c1.91,0,3.44-.52,4.59-1.55,1.16-1.03,1.73-2.59,1.73-4.67s-.65-3.74-1.96-4.96c-1.3-1.23-2.92-1.84-4.83-1.84-1.23,0-2.3.03-3.2.1v12.77c.88.11,2.1.16,3.67.16Z"/><path class="cls-1" d="M133.54,17.38V2.89h6.73v.85h-5.76v5.33h5.21v.83h-5.21v6.63h5.98v.85h-6.95Z"/><path class="cls-1" d="M47.01,49.4v-8.16h.64v7.75c0,.77-.12,1.44-.35,2.03-.24.59-.51,1.04-.82,1.36-.31.32-.71.66-1.21,1.01l-.3-.43c1.36-.99,2.04-2.18,2.04-3.56Z"/><path class="cls-1" d="M51.05,50.45v-9.21h4.3v.57h-3.65v3.35h3.29v.55h-3.29v4.14h3.79v.6h-4.44Z"/><path class="cls-1" d="M60.45,48.21l2.65-6.78h.41l2.31,6.82.34,1.15c.03-.18.15-.56.35-1.13l2.35-7.02h.68l-3.21,9.26h-.38c-1.58-4.53-2.4-6.89-2.45-7.07-.09-.25-.17-.51-.26-.75-.05.16-.18.5-.38,1.01l-2.68,6.81h-.38l-3.23-9.26h.72l2.34,6.91c.13.38.26.8.37,1.26.05-.19.19-.59.44-1.21Z"/><path class="cls-1" d="M71.43,50.45v-9.21h4.3v.57h-3.65v3.35h3.29v.55h-3.29v4.14h3.79v.6h-4.44Z"/><path class="cls-1" d="M78.48,50.45v-9.21h.65v8.61h4.23v.6h-4.88Z"/><path class="cls-1" d="M85.29,50.45v-9.17c.81-.07,1.5-.1,2.07-.1.87,0,1.59.22,2.16.67s.85,1.09.85,1.92c0,.56-.16,1.07-.48,1.55-.32.47-.69.86-1.09,1.15,1.13,1.5,1.82,2.39,2.09,2.68.54.56,1.13.88,1.76.95v.44c-.54,0-.97-.09-1.31-.23s-.66-.39-.99-.75c-.33-.35-1.04-1.29-2.15-2.82-.77,0-1.52-.02-2.26-.07v3.77h-.65ZM87.84,46.21c.37,0,.77-.25,1.19-.74s.64-1.06.64-1.72-.22-1.15-.67-1.49c-.44-.34-1.02-.51-1.73-.51-.38,0-.82.02-1.33.06v4.33c.68.05,1.31.07,1.9.07Z"/><path class="cls-1" d="M95.95,50.45h-.64v-3.29l-3.48-5.92h.78l2.68,4.57c.21.42.33.64.35.67.06-.12.18-.34.35-.65l2.68-4.58h.74l-3.48,5.94v3.26Z"/><path class="cls-2" d="M.5,24.11c1.61-1.73,4.19-3.68,7.66-3.63,2.69.04,5.53.17,7.42.48,3.34.56,7.85,2.11,10.78,3.61,3.08,1.57,6.56,2.69,9.49,4.25,2.98,1.58,4.99,2,9.29,2.71,4.35.39,5.21.53,9.2.36,3.11-.13,6.25-.45,9.58-1.9,3.06-1.33,6.82-3.86,8.43-5.58"/><path class="cls-2" d="M74.5,22.04c-.1-.02-.21-.03-.31,0-.07.03-.15.03-.23.06-.07.02-.12.08-.19.09-.1.02-.24.12-.32.19-.04.03-.07.07-.11.1-.04.03-.11.07-.15.12-.04.04-.11.09-.15.13-.07.06-.12.16-.17.24-.05.07-.11.16-.13.24,0,.05,0,.13-.03.18-.09.18-.13.4-.17.6-.04.24.04.57.25.73.1.08.16.2.25.29.09.08.19.14.29.2.12.08.29.09.43.11.14.02.27.05.41.07.07.01.2.06.27.04.07-.02.14-.05.21-.08.07-.03.16-.02.23-.06.06-.04.14-.09.2-.11.18-.06.36-.13.49-.27.07-.07.14-.09.16-.21.02-.11.08-.19.1-.3,0-.04.01-.09.02-.13,0-.02.05-.04.07-.07.05-.07.04-.19.06-.27.04-.25,0-.57-.16-.78-.05-.07-.08-.15-.11-.23-.03-.09-.1-.16-.16-.23-.22-.3-.49-.56-.88-.62"/><path class="cls-2" d="M143.71,25.18c-1.4,1.9-3.74,4.14-7.2,4.48-2.67.26-5.52.46-7.43.36-3.39-.17-8.03-1.21-11.12-2.36-3.24-1.21-6.82-1.93-9.91-3.14-3.14-1.23-5.19-1.42-9.53-1.64-4.36.11-5.23.06-9.19.68-3.08.48-6.16,1.16-9.3,2.97-2.89,1.67-6.34,4.6-7.74,6.5"/><path class="cls-2" d="M70.5,35.63c.1,0,.22,0,.31-.03.07-.03.15-.05.22-.08.07-.03.11-.09.18-.11.1-.03.22-.15.29-.22.03-.04.06-.08.1-.12.04-.04.1-.09.13-.13.03-.05.1-.1.14-.15.06-.07.1-.18.14-.25.04-.07.1-.17.1-.26,0-.06,0-.13.01-.18.07-.18.09-.42.1-.62.01-.24-.11-.56-.33-.7-.11-.07-.18-.18-.28-.26-.1-.07-.2-.11-.31-.17-.12-.06-.3-.06-.44-.06-.14,0-.28-.01-.41-.02-.07,0-.2-.04-.27,0-.07.03-.13.07-.2.1-.07.03-.16.04-.22.09-.06.04-.12.1-.19.13-.18.08-.34.17-.46.33-.06.08-.13.11-.13.23,0,.11-.06.2-.07.31,0,.04,0,.09,0,.13,0,.02-.05.05-.06.07-.04.07-.02.19-.03.27-.01.25.07.57.25.76.06.06.1.14.13.22.04.08.12.14.18.21.25.27.55.5.94.52"/></svg>