<?xml version="1.0" encoding="UTF-8"?><svg id="Layer_1" xmlns="http://www.w3.org/2000/svg" width="168.18" height="66.48" viewBox="0 0 168.18 66.48"><defs><style>.cls-1{fill:#593921;stroke-width:0px;}.cls-2{fill:none;stroke:#593921;stroke-linecap:round;}</style></defs><path class="cls-1" d="M7.47,6.44l.05,2.13v12.95h-1.14V3.42h.52l11.14,13.63c.76.95,1.34,1.71,1.75,2.28-.06-.8-.09-1.72-.09-2.76V3.58h1.14v18.09h-.52L8.96,7.79c-.79-.95-1.29-1.59-1.51-1.91l.02.55Z"/><path class="cls-1" d="M27.08,21.52V3.58h1.14v17.94h-1.14Z"/><path class="cls-1" d="M35.55,6.44l.05,2.13v12.95h-1.14V3.42h.52l11.14,13.63c.76.95,1.34,1.71,1.75,2.28-.06-.8-.09-1.72-.09-2.76V3.58h1.14v18.09h-.52l-11.36-13.88c-.79-.95-1.29-1.59-1.51-1.91l.02.55Z"/><path class="cls-1" d="M56.06,15.29l-2.44,6.22h-1.21l7.12-18.07h.66l7.15,18.07h-1.28l-2.44-6.22h-7.57ZM59.8,5.46s-.05.12-.09.3c-.22.72-.43,1.33-.64,1.83l-2.6,6.68h6.77l-2.6-6.65c-.55-1.27-.83-1.99-.83-2.16Z"/><path class="cls-1" d="M79.37,21.52V3.65c1.5-.12,2.75-.18,3.76-.18,1.61,0,2.93.44,3.98,1.32s1.56,2.12,1.56,3.73c0,1.09-.3,2.1-.9,3.04-.6.94-1.27,1.68-2.01,2.23.58.85,1.3,1.87,2.16,3.05.86,1.18,1.42,1.92,1.67,2.22.96,1.09,2.05,1.71,3.27,1.86l-.02.8c-.96-.02-1.74-.17-2.34-.46-.6-.29-1.17-.74-1.72-1.34-.54-.6-1.9-2.48-4.06-5.62-1.55,0-2.95-.05-4.21-.15v7.38h-1.14ZM84.03,13.29c.69,0,1.44-.48,2.22-1.46.79-.97,1.18-2.1,1.18-3.38s-.41-2.25-1.22-2.91c-.81-.66-1.89-.99-3.23-.99-.71,0-1.54.03-2.48.1v8.51c1.26.08,2.44.12,3.53.12Z"/><path class="cls-1" d="M93.94,12.53c0-2.61.78-4.8,2.35-6.59,1.57-1.78,3.55-2.67,5.95-2.67,1.69,0,3.2.48,4.54,1.43l1.44-2.23.76.58-1.44,2.23c.96.85,1.71,1.91,2.24,3.16s.79,2.62.79,4.09c0,2.61-.79,4.81-2.37,6.6s-3.56,2.68-5.96,2.68c-1.69,0-3.2-.48-4.54-1.43l-1.42,2.18-.76-.55,1.44-2.21c-.96-.87-1.71-1.93-2.24-3.19s-.79-2.62-.79-4.09ZM97.14,6.73c-1.31,1.56-1.96,3.57-1.96,6.02s.8,4.48,2.41,6.08l8.59-13.2c-1.14-.84-2.44-1.25-3.93-1.25-2.1,0-3.8.78-5.11,2.35ZM109.34,12.53c0-2.61-.81-4.71-2.44-6.3l-8.59,13.22c1.14.84,2.44,1.25,3.93,1.25,2.1,0,3.8-.79,5.12-2.36,1.32-1.57,1.98-3.51,1.98-5.82Z"/><path class="cls-1" d="M116.92,6.44l.05,2.13v12.95h-1.14V3.42h.52l11.14,13.63c.76.95,1.34,1.71,1.75,2.28-.06-.8-.09-1.72-.09-2.76V3.58h1.14v18.09h-.52l-11.36-13.88c-.79-.95-1.29-1.59-1.51-1.91l.02.55Z"/><path class="cls-1" d="M141.4,3.4c2.6,0,4.78.86,6.53,2.57,1.75,1.71,2.63,4.04,2.63,6.99,0,1.49-.23,2.81-.67,3.95-.45,1.15-1.07,2.06-1.86,2.75-1.62,1.39-3.65,2.08-6.08,2.08-1.59,0-3.4-.09-5.42-.28V3.58c1.61-.12,3.23-.18,4.87-.18ZM141.95,20.64c2.22,0,4.01-.64,5.36-1.92,1.35-1.28,2.02-3.21,2.02-5.78s-.76-4.63-2.28-6.15c-1.52-1.52-3.4-2.28-5.64-2.28-1.44,0-2.68.04-3.74.13v15.81c1.02.13,2.45.2,4.28.2Z"/><path class="cls-1" d="M155.81,21.52V3.58h7.85v1.05h-6.72v6.6h6.08v1.03h-6.08v8.21h6.98v1.05h-8.12Z"/><path class="cls-1" d="M54.8,61.17v-10.1h.75v9.59c0,.95-.14,1.79-.41,2.51-.28.73-.6,1.29-.96,1.69-.36.4-.83.81-1.41,1.25l-.35-.53c1.59-1.23,2.38-2.7,2.38-4.41Z"/><path class="cls-1" d="M59.52,62.47v-11.4h5.02v.7h-4.26v4.15h3.84v.68h-3.84v5.13h4.42v.74h-5.18Z"/><path class="cls-1" d="M70.48,59.7l3.1-8.4h.48l2.7,8.45.4,1.42c.03-.22.17-.69.41-1.41l2.75-8.7h.79l-3.74,11.47h-.45c-1.84-5.61-2.8-8.53-2.87-8.75-.1-.32-.2-.63-.3-.93-.06.2-.2.61-.45,1.25l-3.13,8.43h-.45l-3.78-11.47h.84l2.73,8.55c.15.47.3.99.43,1.56.06-.23.23-.73.51-1.49Z"/><path class="cls-1" d="M83.3,62.47v-11.4h5.02v.7h-4.26v4.15h3.84v.68h-3.84v5.13h4.42v.74h-5.18Z"/><path class="cls-1" d="M91.53,62.47v-11.4h.76v10.66h4.94v.74h-5.7Z"/><path class="cls-1" d="M99.48,62.47v-11.35c.95-.08,1.76-.12,2.42-.12,1.02,0,1.85.28,2.52.83.66.56.99,1.35.99,2.38,0,.69-.19,1.33-.56,1.91-.38.59-.8,1.06-1.28,1.42,1.31,1.85,2.13,2.96,2.43,3.32.63.69,1.31,1.08,2.05,1.18l-.02.54c-.62-.01-1.12-.11-1.51-.29-.39-.18-.77-.49-1.15-.92s-1.22-1.6-2.51-3.5c-.89,0-1.77-.03-2.63-.09v4.67h-.76ZM102.46,57.22c.43,0,.89-.3,1.39-.91.5-.61.75-1.32.75-2.12s-.26-1.42-.78-1.84c-.52-.42-1.19-.63-2.02-.63-.44,0-.96.02-1.56.07v5.36c.8.06,1.53.09,2.22.09Z"/><path class="cls-1" d="M111.93,62.47h-.75v-4.08l-4.06-7.33h.91l3.13,5.66c.24.52.38.79.41.83.07-.15.2-.42.41-.81l3.13-5.67h.86l-4.06,7.36v4.04Z"/><path class="cls-2" d="M.5,29.85c1.88-2.14,4.89-4.56,8.95-4.5,3.14.05,6.46.21,8.66.6,3.9.69,9.16,2.61,12.59,4.47,3.59,1.95,7.65,3.33,11.08,5.26,3.48,1.96,5.83,2.47,10.84,3.36,5.07.48,6.08.66,10.74.45,3.63-.16,7.3-.56,11.18-2.35,3.58-1.64,7.96-4.77,9.84-6.91"/><path class="cls-2" d="M86.88,27.29c-.12-.02-.25-.04-.36,0-.09.03-.18.04-.27.07-.08.03-.15.1-.23.11-.12.03-.28.15-.37.24-.04.04-.08.09-.13.13-.05.04-.13.09-.17.14-.04.06-.12.11-.18.16-.08.07-.14.2-.2.29-.06.09-.13.19-.15.3-.01.07-.01.16-.04.22-.1.22-.16.5-.19.74-.05.29.05.71.29.9.12.1.18.25.29.35.11.1.22.17.34.25.14.09.34.11.5.14.16.03.32.06.48.08.08.01.23.07.31.04.08-.03.16-.06.24-.09.08-.03.19-.03.27-.08.07-.05.16-.11.24-.14.22-.08.41-.16.57-.34.09-.09.16-.12.18-.26.02-.14.1-.23.12-.37,0-.05.02-.11.03-.16,0-.03.06-.05.08-.08.05-.08.05-.23.07-.33.05-.31,0-.71-.18-.97-.06-.08-.1-.19-.13-.29-.03-.11-.12-.19-.19-.29-.26-.37-.57-.69-1.02-.77"/><path class="cls-2" d="M167.68,31.18c-1.64,2.35-4.37,5.12-8.41,5.54-3.12.33-6.44.57-8.67.45-3.95-.21-9.38-1.49-12.99-2.93-3.78-1.5-7.96-2.39-11.57-3.89-3.66-1.53-6.06-1.75-11.13-2.03-5.09.13-6.11.08-10.72.85-3.59.6-7.19,1.44-10.86,3.68-3.38,2.06-7.4,5.7-9.04,8.05"/><path class="cls-2" d="M82.22,44.12c.12,0,.25.01.36-.04.08-.04.17-.06.26-.1.08-.03.13-.11.21-.14.12-.04.26-.18.34-.28.04-.05.07-.1.12-.14.05-.05.12-.11.15-.16.04-.06.11-.12.16-.18.07-.08.12-.22.17-.31.05-.09.11-.21.12-.32,0-.07,0-.16.01-.22.08-.23.1-.51.11-.76.01-.3-.13-.7-.38-.86-.13-.08-.21-.23-.33-.32-.12-.09-.24-.14-.37-.21-.15-.08-.35-.07-.51-.08-.16,0-.32-.02-.48-.03-.08,0-.24-.04-.31,0-.08.04-.15.08-.23.12-.08.04-.19.05-.26.11-.07.06-.15.13-.22.17-.21.1-.39.21-.53.4-.07.1-.15.13-.15.28,0,.14-.07.25-.08.38,0,.06,0,.11,0,.17,0,.03-.05.06-.07.09-.04.09-.03.24-.03.34-.01.31.08.7.29.94.07.08.12.17.16.27.04.1.14.18.21.26.29.34.64.62,1.1.64"/></svg>